# xmcd
#
# Track frame offsets:
#  150
#  13240
#  31317
#  52919
#  74596
#  96123
#  116488
#  137370
#  153771
#  175898
#  194591
#  211093
#  233745
#  251447
#  271474
#
# Disc length: 3827 seconds
#
# Revision: 0
# Processed by: cddbd v1.4PL0 Copyright (c) Steve Scherf et al.
# Submitted via: AltoMP3_Maker 3.0
#
DISCID=c80ef10f
DTITLE=梁咏琪等 - 千喜年万宝路白金唱片冠军金曲
DYEAR=1900
DGENRE=
TTITLE0=我钟意
TTITLE1=Sugar  in  the  Marmalade
TTITLE2=我应该得到
TTITLE3=木鱼与金鱼
TTITLE4=许愿
TTITLE5=愈错愈爱
TTITLE6=快乐无罪
TTITLE7=感激
TTITLE8=我可以抱你吗
TTITLE9=今天到永远
TTITLE10=天使
TTITLE11=为什么你背着我爱别人
TTITLE12=渴望无限
TTITLE13=估计错误
TTITLE14=Big  Big  World
EXTD=
EXTT0=
EXTT1=
EXTT2=
EXTT3=
EXTT4=
EXTT5=
EXTT6=
EXTT7=
EXTT8=
EXTT9=
EXTT10=
EXTT11=
EXTT12=
EXTT13=
EXTT14=
PLAYORDER=
